<svg width="49" height="49" viewBox="0 0 49 49" fill="none" xmlns="http://www.w3.org/2000/svg">
<g id="move-arrows">
<path id="Union" fill-rule="evenodd" clip-rule="evenodd" d="M44.4316 26.8801L48.4044 24.3971L44.4316 21.9141L45.2248 23.8971H24.5676C24.2915 23.8971 24.0676 24.1209 24.0676 24.3971C24.0676 24.6732 24.2915 24.8971 24.5676 24.8971H45.2248L44.4316 26.8801Z" fill="#00A3C4"/>
<path id="Union_2" fill-rule="evenodd" clip-rule="evenodd" d="M4.70376 26.8801L0.730957 24.3971L4.70376 21.9141L3.91056 23.8971H24.5678C24.8439 23.8971 25.0678 24.1209 25.0678 24.3971C25.0678 24.6732 24.8439 24.8971 24.5678 24.8971H3.91056L4.70376 26.8801Z" fill="#00A3C4"/>
<path id="Union_3" fill-rule="evenodd" clip-rule="evenodd" d="M25.0677 24.397C25.0677 24.1208 24.8439 23.897 24.5677 23.897C24.2916 23.897 24.0677 24.1208 24.0677 24.397L24.0677 45.0542L22.0847 44.261L24.5677 48.2338L27.0507 44.261L25.0677 45.0542L25.0677 24.397Z" fill="#00A3C4"/>
<path id="Union_4" fill-rule="evenodd" clip-rule="evenodd" d="M24.7849 24.5371C24.9802 24.3419 24.9802 24.0253 24.7849 23.83C24.5897 23.6348 24.2731 23.6348 24.0778 23.83L2.40513 45.5027L1.55345 43.5155L0.5 48.0804L5.06494 47.027L3.12606 46.196L24.7849 24.5371Z" fill="#00A3C4"/>
<path id="Union_5" fill-rule="evenodd" clip-rule="evenodd" d="M24.2151 24.5371C24.0198 24.3419 24.0198 24.0253 24.2151 23.83C24.4103 23.6348 24.7269 23.6348 24.9222 23.83L46.5948 45.5027L47.4465 43.5155L48.5 48.0804L43.935 47.027L45.8739 46.196L24.2151 24.5371Z" fill="#00A3C4"/>
</g>
</svg>
