<svg width="16" height="16" viewBox="0 0 16 16" fill="none" xmlns="http://www.w3.org/2000/svg">
<g id="icon/move-right" clip-path="url(#clip0_108_76450)">
<path id="Vector" d="M0.37938 7.52586C0.316981 7.58754 0.267372 7.66094 0.233397 7.74183C0.199421 7.82273 0.181748 7.90953 0.181391 7.99727C0.18103 8.08528 0.198098 8.17248 0.23161 8.25386C0.265123 8.33524 0.314416 8.40918 0.376647 8.47141C0.438878 8.53364 0.512815 8.58293 0.594192 8.61644C0.67557 8.64995 0.762777 8.66702 0.850784 8.66666L13.5445 8.66468L12.7949 9.41422C12.6699 9.53924 12.5592 9.64992 12.3235 9.88562C12.5592 10.1213 12.6699 10.232 12.7949 10.357C12.9199 10.482 13.0306 10.5927 13.2663 10.8284C13.502 10.5927 13.6127 10.482 13.7377 10.357L15.6233 8.47141C15.6842 8.40906 15.7323 8.33539 15.7648 8.25456C15.8321 8.09154 15.8321 7.90847 15.7648 7.74544C15.7323 7.66462 15.6842 7.59095 15.6233 7.5286L13.7377 5.64298C13.6127 5.51796 13.502 5.40727 13.2663 5.17159C13.0306 5.40729 12.9199 5.51796 12.7949 5.64298C12.6699 5.768 12.5592 5.87868 12.3235 6.11438C12.4616 6.25246 12.6699 6.46077 12.7949 6.58579L13.5445 7.33532L0.850784 7.32788C0.763045 7.32823 0.676242 7.34591 0.595348 7.37988C0.514454 7.41386 0.441061 7.46347 0.37938 7.52586Z" fill="#2D3748"/>
</g>
<defs>
<clipPath id="clip0_108_76450">
<rect width="16" height="16" fill="white"/>
</clipPath>
</defs>
</svg>
